<svg id="visual" viewBox="0 0 900 600" width="900" height="600" xmlns="http://www.w3.org/2000/svg" xmlns:xlink="http://www.w3.org/1999/xlink" version="1.1"><path d="M0 301L15 316.3C30 331.7 60 362.3 90 382.2C120 402 150 411 180 405.8C210 400.7 240 381.3 270 377.5C300 373.7 330 385.3 360 395.7C390 406 420 415 450 413.3C480 411.7 510 399.3 540 396.5C570 393.7 600 400.3 630 401.5C660 402.7 690 398.3 720 388.7C750 379 780 364 810 370.3C840 376.7 870 404.3 885 418.2L900 432L900 601L885 601C870 601 840 601 810 601C780 601 750 601 720 601C690 601 660 601 630 601C600 601 570 601 540 601C510 601 480 601 450 601C420 601 390 601 360 601C330 601 300 601 270 601C240 601 210 601 180 601C150 601 120 601 90 601C60 601 30 601 15 601L0 601Z" fill="#f6416c"></path><path d="M0 334L15 334.7C30 335.3 60 336.7 90 339.7C120 342.7 150 347.3 180 348.8C210 350.3 240 348.7 270 359.3C300 370 330 393 360 394.8C390 396.7 420 377.3 450 383.3C480 389.3 510 420.7 540 432.3C570 444 600 436 630 437.7C660 439.3 690 450.7 720 455.8C750 461 780 460 810 442.7C840 425.3 870 391.7 885 374.8L900 358L900 601L885 601C870 601 840 601 810 601C780 601 750 601 720 601C690 601 660 601 630 601C600 601 570 601 540 601C510 601 480 601 450 601C420 601 390 601 360 601C330 601 300 601 270 601C240 601 210 601 180 601C150 601 120 601 90 601C60 601 30 601 15 601L0 601Z" fill="#fd6764"></path><path d="M0 454L15 446.5C30 439 60 424 90 425C120 426 150 443 180 443.5C210 444 240 428 270 429.3C300 430.7 330 449.3 360 453.7C390 458 420 448 450 440.2C480 432.3 510 426.7 540 433.7C570 440.7 600 460.3 630 464.8C660 469.3 690 458.7 720 449C750 439.3 780 430.7 810 418.2C840 405.7 870 389.3 885 381.2L900 373L900 601L885 601C870 601 840 601 810 601C780 601 750 601 720 601C690 601 660 601 630 601C600 601 570 601 540 601C510 601 480 601 450 601C420 601 390 601 360 601C330 601 300 601 270 601C240 601 210 601 180 601C150 601 120 601 90 601C60 601 30 601 15 601L0 601Z" fill="#ff8963"></path><path d="M0 470L15 463.5C30 457 60 444 90 449.3C120 454.7 150 478.3 180 488C210 497.7 240 493.3 270 492.7C300 492 330 495 360 484.5C390 474 420 450 450 445.7C480 441.3 510 456.7 540 465.3C570 474 600 476 630 470C660 464 690 450 720 439.5C750 429 780 422 810 431.7C840 441.3 870 467.7 885 480.8L900 494L900 601L885 601C870 601 840 601 810 601C780 601 750 601 720 601C690 601 660 601 630 601C600 601 570 601 540 601C510 601 480 601 450 601C420 601 390 601 360 601C330 601 300 601 270 601C240 601 210 601 180 601C150 601 120 601 90 601C60 601 30 601 15 601L0 601Z" fill="#ffa76c"></path><path d="M0 482L15 484.3C30 486.7 60 491.3 90 485.7C120 480 150 464 180 469C210 474 240 500 270 506C300 512 330 498 360 497.5C390 497 420 510 450 518C480 526 510 529 540 530C570 531 600 530 630 523.3C660 516.7 690 504.3 720 501C750 497.7 780 503.3 810 510.3C840 517.3 870 525.7 885 529.8L900 534L900 601L885 601C870 601 840 601 810 601C780 601 750 601 720 601C690 601 660 601 630 601C600 601 570 601 540 601C510 601 480 601 450 601C420 601 390 601 360 601C330 601 300 601 270 601C240 601 210 601 180 601C150 601 120 601 90 601C60 601 30 601 15 601L0 601Z" fill="#fec37e"></path><path d="M0 494L15 495.5C30 497 60 500 90 504.2C120 508.3 150 513.7 180 511.5C210 509.3 240 499.7 270 499C300 498.3 330 506.7 360 507.7C390 508.7 420 502.3 450 498.5C480 494.7 510 493.3 540 502.3C570 511.3 600 530.7 630 541.7C660 552.7 690 555.3 720 547.5C750 539.7 780 521.3 810 515.3C840 509.3 870 515.7 885 518.8L900 522L900 601L885 601C870 601 840 601 810 601C780 601 750 601 720 601C690 601 660 601 630 601C600 601 570 601 540 601C510 601 480 601 450 601C420 601 390 601 360 601C330 601 300 601 270 601C240 601 210 601 180 601C150 601 120 601 90 601C60 601 30 601 15 601L0 601Z" fill="#fedd98"></path><path d="M0 550L15 551.5C30 553 60 556 90 555.8C120 555.7 150 552.3 180 551.3C210 550.3 240 551.7 270 549.3C300 547 330 541 360 544.7C390 548.3 420 561.7 450 569.3C480 577 510 579 540 577.7C570 576.3 600 571.7 630 570.8C660 570 690 573 720 574.8C750 576.7 780 577.3 810 575.7C840 574 870 570 885 568L900 566L900 601L885 601C870 601 840 601 810 601C780 601 750 601 720 601C690 601 660 601 630 601C600 601 570 601 540 601C510 601 480 601 450 601C420 601 390 601 360 601C330 601 300 601 270 601C240 601 210 601 180 601C150 601 120 601 90 601C60 601 30 601 15 601L0 601Z" fill="#fff6b7"></path></svg>