<svg id="visual" viewBox="0 0 900 600" width="900" height="600" xmlns="http://www.w3.org/2000/svg" xmlns:xlink="http://www.w3.org/1999/xlink" version="1.1"><path d="M0 297L15 281.7C30 266.3 60 235.7 90 215.8C120 196 150 187 180 192.2C210 197.3 240 216.7 270 220.5C300 224.3 330 212.7 360 202.3C390 192 420 183 450 184.7C480 186.3 510 198.7 540 201.5C570 204.3 600 197.7 630 196.5C660 195.3 690 199.7 720 209.3C750 219 780 234 810 227.7C840 221.3 870 193.7 885 179.8L900 166L900 0L885 0C870 0 840 0 810 0C780 0 750 0 720 0C690 0 660 0 630 0C600 0 570 0 540 0C510 0 480 0 450 0C420 0 390 0 360 0C330 0 300 0 270 0C240 0 210 0 180 0C150 0 120 0 90 0C60 0 30 0 15 0L0 0Z" fill="#f6416c"></path><path d="M0 264L15 263.3C30 262.7 60 261.3 90 258.3C120 255.3 150 250.7 180 249.2C210 247.7 240 249.3 270 238.7C300 228 330 205 360 203.2C390 201.3 420 220.7 450 214.7C480 208.7 510 177.3 540 165.7C570 154 600 162 630 160.3C660 158.7 690 147.3 720 142.2C750 137 780 138 810 155.3C840 172.7 870 206.3 885 223.2L900 240L900 0L885 0C870 0 840 0 810 0C780 0 750 0 720 0C690 0 660 0 630 0C600 0 570 0 540 0C510 0 480 0 450 0C420 0 390 0 360 0C330 0 300 0 270 0C240 0 210 0 180 0C150 0 120 0 90 0C60 0 30 0 15 0L0 0Z" fill="#fd6764"></path><path d="M0 144L15 151.5C30 159 60 174 90 173C120 172 150 155 180 154.5C210 154 240 170 270 168.7C300 167.3 330 148.7 360 144.3C390 140 420 150 450 157.8C480 165.7 510 171.3 540 164.3C570 157.3 600 137.7 630 133.2C660 128.7 690 139.3 720 149C750 158.7 780 167.3 810 179.8C840 192.3 870 208.7 885 216.8L900 225L900 0L885 0C870 0 840 0 810 0C780 0 750 0 720 0C690 0 660 0 630 0C600 0 570 0 540 0C510 0 480 0 450 0C420 0 390 0 360 0C330 0 300 0 270 0C240 0 210 0 180 0C150 0 120 0 90 0C60 0 30 0 15 0L0 0Z" fill="#ff8963"></path><path d="M0 128L15 134.5C30 141 60 154 90 148.7C120 143.3 150 119.7 180 110C210 100.3 240 104.7 270 105.3C300 106 330 103 360 113.5C390 124 420 148 450 152.3C480 156.7 510 141.3 540 132.7C570 124 600 122 630 128C660 134 690 148 720 158.5C750 169 780 176 810 166.3C840 156.7 870 130.3 885 117.2L900 104L900 0L885 0C870 0 840 0 810 0C780 0 750 0 720 0C690 0 660 0 630 0C600 0 570 0 540 0C510 0 480 0 450 0C420 0 390 0 360 0C330 0 300 0 270 0C240 0 210 0 180 0C150 0 120 0 90 0C60 0 30 0 15 0L0 0Z" fill="#ffa76c"></path><path d="M0 116L15 113.7C30 111.3 60 106.7 90 112.3C120 118 150 134 180 129C210 124 240 98 270 92C300 86 330 100 360 100.5C390 101 420 88 450 80C480 72 510 69 540 68C570 67 600 68 630 74.7C660 81.3 690 93.7 720 97C750 100.3 780 94.7 810 87.7C840 80.7 870 72.3 885 68.2L900 64L900 0L885 0C870 0 840 0 810 0C780 0 750 0 720 0C690 0 660 0 630 0C600 0 570 0 540 0C510 0 480 0 450 0C420 0 390 0 360 0C330 0 300 0 270 0C240 0 210 0 180 0C150 0 120 0 90 0C60 0 30 0 15 0L0 0Z" fill="#fec37e"></path><path d="M0 104L15 102.5C30 101 60 98 90 93.8C120 89.7 150 84.3 180 86.5C210 88.7 240 98.3 270 99C300 99.7 330 91.3 360 90.3C390 89.3 420 95.7 450 99.5C480 103.3 510 104.7 540 95.7C570 86.7 600 67.3 630 56.3C660 45.3 690 42.7 720 50.5C750 58.3 780 76.7 810 82.7C840 88.7 870 82.3 885 79.2L900 76L900 0L885 0C870 0 840 0 810 0C780 0 750 0 720 0C690 0 660 0 630 0C600 0 570 0 540 0C510 0 480 0 450 0C420 0 390 0 360 0C330 0 300 0 270 0C240 0 210 0 180 0C150 0 120 0 90 0C60 0 30 0 15 0L0 0Z" fill="#fedd98"></path><path d="M0 48L15 46.5C30 45 60 42 90 42.2C120 42.3 150 45.7 180 46.7C210 47.7 240 46.3 270 48.7C300 51 330 57 360 53.3C390 49.7 420 36.3 450 28.7C480 21 510 19 540 20.3C570 21.7 600 26.3 630 27.2C660 28 690 25 720 23.2C750 21.3 780 20.7 810 22.3C840 24 870 28 885 30L900 32L900 0L885 0C870 0 840 0 810 0C780 0 750 0 720 0C690 0 660 0 630 0C600 0 570 0 540 0C510 0 480 0 450 0C420 0 390 0 360 0C330 0 300 0 270 0C240 0 210 0 180 0C150 0 120 0 90 0C60 0 30 0 15 0L0 0Z" fill="#fff6b7"></path></svg>